# Blender 4.1.1
# www.blender.org
mtllib cube.mtl
o mesh
v 1.000000 2.000000 1.000000
v 1.000000 2.000000 -1.000000
v 1.000000 0.000000 1.000000
v 1.000000 -0.000000 -1.000000
v -1.000000 2.000000 1.000000
v -1.000000 2.000000 -1.000000
v -1.000000 0.000000 1.000000
v -1.000000 -0.000000 -1.000000
vn 1.0000 -0.0000 -0.0000
vn -1.0000 -0.0000 -0.0000
vn -0.0000 1.0000 -0.0000
vn -0.0000 -1.0000 -0.0000
vn -0.0000 -0.0000 1.0000
vn -0.0000 -0.0000 -1.0000
vt 0.500000 1.000000
vt 0.000000 1.000000
vt 0.000000 0.500000
vt 0.500000 0.500000
vt 0.000000 0.000000
vt 0.500000 0.000000
vt 1.000000 0.500000
vt 1.000000 1.000000
s 0
usemtl m_1b344141-24a6-21f1-224a-cb407a2c6e10
f 2/1/1 1/2/1 3/3/1 4/4/1
f 7/4/2 5/1/2 6/2/2 8/3/2
f 5/5/3 1/6/3 2/4/3 6/3/3
f 4/7/4 3/8/4 7/1/4 8/4/4
f 3/4/5 1/1/5 5/2/5 7/3/5
f 6/1/6 2/2/6 4/3/6 8/4/6
